<svg width="105" height="103" viewBox="0 0 105 103" fill="none" xmlns="http://www.w3.org/2000/svg">
<path fill-rule="evenodd" clip-rule="evenodd" d="M21.3743 27.9642L16.7887 25.8075L19.756 32.0107L16.2487 39.5629L21.1051 36.8655L27.0368 44.6854L25.9584 34.978L31.6224 32.0107L25.9584 29.5832L26.7676 21.2211L21.3743 27.9642ZM38.7377 102.337C16.6163 96.3538 0.516602 76.1817 0.516602 52.1691C0.516602 23.4479 23.8025 0.161273 52.5252 0.161273C81.2486 0.161273 104.532 23.4479 104.532 52.1691C104.532 66.032 99.1076 78.6275 90.2673 87.9505C90.2673 87.9505 86.6464 83.2543 85.5665 81.6383C84.4866 80.0192 82.8706 79.8179 83.1398 77.5911C83.4647 74.9013 85.5665 72.1963 85.5665 72.1963L86.1057 74.353C86.1057 74.353 101.249 58.4363 99.5919 47.6536C98.5105 40.6413 94.1971 39.8321 94.1971 39.8321C94.1971 39.8321 95.2755 33.359 85.2958 28.5034C75.3161 23.6493 67.7646 24.4584 67.7646 24.4584L72.0811 27.695C72.0811 27.695 66.8884 26.7676 64.2581 27.425L62.1014 27.9649L64.8987 29.3148C64.8987 29.3148 59.2027 29.5718 55.3583 32.5514C52.3566 34.8781 52.1217 36.3279 52.1217 36.3279H54.2799C54.2799 36.3279 52.3909 39.5644 51.8525 42.8002C51.3133 46.0368 51.549 46.9138 51.549 46.9138C51.549 46.9138 51.549 48.4307 48.818 50.4539C46.82 51.9342 44.8745 52.2751 44.2667 53.0834C43.3508 54.3052 46.1885 56.2864 46.1885 56.2864C46.1885 56.2864 45.9864 57.7362 44.6709 59.3545C44.07 60.0942 46.1885 61.3769 46.8962 61.6812L45.1773 63.0967C45.1773 63.0967 44.571 63.7037 45.5807 64.4107C46.5935 65.1191 46.1878 66.6368 45.7843 68.2543C45.3794 69.8733 44.571 72.4022 50.0314 73.0069C55.494 73.6147 55.7976 74.626 56.3024 75.3337C56.8088 76.0445 59.9424 84.9427 58.3249 86.3605C56.1011 88.3044 52.1919 87.7294 44.6701 92.8321C39.0069 96.6734 38.7377 102.337 38.7377 102.337Z" fill="#28539C"/>
</svg>
